HIERARCHY
ROOT Hips
{
	OFFSET 4.076200 -17.275196 43.303001
	CHANNELS 6 Xposition Yposition Zposition Zrotation Xrotation Yrotation
	JOINT Chest
	{
		OFFSET -0.689800 0.941999 5.341000
		CHANNELS 6 Xposition Yposition Zposition Zrotation Xrotation Yrotation
		JOINT Chest2
		{
			OFFSET 0.000000 0.000000 4.278900
			CHANNELS 6 Xposition Yposition Zposition Zrotation Xrotation Yrotation
			JOINT Neck
			{
				OFFSET 0.000000 0.000000 9.970299
				CHANNELS 6 Xposition Yposition Zposition Zrotation Xrotation Yrotation
				JOINT Head
				{
					OFFSET 0.000000 0.000002 2.173901
					CHANNELS 6 Xposition Yposition Zposition Zrotation Xrotation Yrotation
					End Site
					{
						OFFSET 0.000000 0.000000 6.488197
					}
				}
			}
			JOINT LeftCollar
			{
				OFFSET 2.472300 -0.285801 5.433899
				CHANNELS 6 Xposition Yposition Zposition Zrotation Xrotation Yrotation
				JOINT LeftShoulder
				{
					OFFSET 5.327700 0.000000 0.000000
					CHANNELS 6 Xposition Yposition Zposition Zrotation Xrotation Yrotation
					JOINT LeftElbow
					{
						OFFSET 0.000000 0.000000 -10.713001
						CHANNELS 6 Xposition Yposition Zposition Zrotation Xrotation Yrotation
						JOINT LeftWrist
						{
							OFFSET 0.000000 -0.000002 -13.396900
							CHANNELS 6 Xposition Yposition Zposition Zrotation Xrotation Yrotation
							End Site
							{
								OFFSET 0.000000 0.000000 -2.173901
							}
						}
					}
				}
			}
			JOINT RightCollar
			{
				OFFSET -2.589400 -1.358400 6.105000
				CHANNELS 6 Xposition Yposition Zposition Zrotation Xrotation Yrotation
				JOINT RightShoulder
				{
					OFFSET -4.580200 0.000000 0.000000
					CHANNELS 6 Xposition Yposition Zposition Zrotation Xrotation Yrotation
					JOINT RightElbow
					{
						OFFSET 0.000000 0.000000 -10.761101
						CHANNELS 6 Xposition Yposition Zposition Zrotation Xrotation Yrotation
						JOINT RightWrist
						{
							OFFSET 0.000000 -0.000002 -13.028500
							CHANNELS 6 Xposition Yposition Zposition Zrotation Xrotation Yrotation
							End Site
							{
								OFFSET 0.000000 0.000000 -2.173901
							}
						}
					}
				}
			}
		}
	}
	JOINT LeftHip
	{
		OFFSET 2.532500 0.486900 -2.489700
		CHANNELS 6 Xposition Yposition Zposition Zrotation Xrotation Yrotation
		JOINT LeftKnee
		{
			OFFSET 0.000000 -0.000002 -18.199398
			CHANNELS 6 Xposition Yposition Zposition Zrotation Xrotation Yrotation
			JOINT LeftAnkle
			{
				OFFSET 0.000000 -0.000002 -16.083900
				CHANNELS 6 Xposition Yposition Zposition Zrotation Xrotation Yrotation
				End Site
				{
					OFFSET 0.000000 -8.641399 0.000000
				}
			}
		}
	}
	JOINT RightHip
	{
		OFFSET -2.112700 -0.049900 -2.711102
		CHANNELS 6 Xposition Yposition Zposition Zrotation Xrotation Yrotation
		JOINT RightKnee
		{
			OFFSET 0.000000 -0.000002 -19.127298
			CHANNELS 6 Xposition Yposition Zposition Zrotation Xrotation Yrotation
			JOINT RightAnkle
			{
				OFFSET 0.000000 -0.000002 -14.874901
				CHANNELS 6 Xposition Yposition Zposition Zrotation Xrotation Yrotation
				End Site
				{
					OFFSET 0.000000 -8.198299 0.000000
				}
			}
		}
	}
}
MOTION
Frames: 7
Frame Time: 0.041667
84.808411 -37.759895 27.906300 -52.555201 38.924476 22.154484 -0.689797 0.942012 5.340998 -0.524241 -1.314406 14.540750 -0.000009 0.000001 4.278905 -1.490224 -3.701946 -0.500825 0.000007 -0.000005 9.970297 33.439954 -1.706251 -16.613670 -0.000004 0.000002 2.173893 0.558401 0.042788 1.863572 2.472299 -0.285809 5.433910 -8.917129 1.922941 11.159221 5.327699 0.000008 0.000003 1299.881387 -122.961327 1246.382318 0.000000 0.000010 -10.712997 253.476899 -169.868198 201.386161 -0.000006 0.000005 -13.396898 147.431587 -174.521702 101.243382 -2.589394 -1.358408 6.105010 35.460481 23.161201 2.775603 -4.580195 -0.000008 0.000001 -687.978345 -43.894293 -669.469024 -0.000002 0.000009 -10.761112 102.710110 -123.842518 88.745604 -0.000002 -0.000007 -13.028502 818.036239 -535.499289 767.421914 2.532501 0.486904 -2.489699 -582.609235 -48.744598 119.702876 -0.000001 -0.000004 -18.199396 716.323411 538.318354 -85.536583 -0.000001 0.000000 -16.083900 -102.367044 164.346919 230.435010 -2.112707 -0.049894 -2.711101 -110.466610 -24.243075 -110.526565 0.000008 0.000003 -19.127296 1245.577995 38.928841 -1207.803880 -0.000001 -0.000002 -14.874899 124.370095 164.095090 179.768352
84.668198 -37.695793 28.179300 -53.610691 38.899993 23.051516 -0.689792 0.941994 5.340993 -0.863302 -1.352579 14.115790 0.000004 0.000002 4.278912 -1.321452 -3.697118 -0.497971 -0.000008 0.000000 9.970297 31.288690 -1.692991 -16.857409 -0.000012 0.000005 2.173890 1.058122 0.058533 1.170417 2.472294 -0.285808 5.433895 -9.364814 1.882804 10.690462 5.327703 0.000008 -0.000005 1302.235343 -122.343564 1248.817800 0.000007 0.000003 -10.713000 251.066908 -170.183206 199.603604 -0.000005 0.000005 -13.396903 147.299163 -175.115764 101.883917 -2.589405 -1.358396 6.104997 34.600939 23.053010 2.501413 -4.580208 -0.000004 -0.000003 -687.184677 -43.159340 -668.730489 0.000001 0.000003 -10.761110 102.989431 -123.737729 88.823366 0.000002 -0.000009 -13.028504 817.883680 -535.393175 767.328040 2.532507 0.486895 -2.489707 -582.471101 -49.248181 118.858542 0.000008 -0.000003 -18.199400 716.025287 538.287646 -86.415157 0.000002 -0.000006 -16.083904 -101.581244 164.154280 230.970879 -2.112690 -0.049911 -2.711106 -109.555859 -24.306837 -109.895667 -0.000001 0.000001 -19.127300 1244.567346 40.053264 -1207.311013 0.000006 -0.000001 -14.874897 124.573676 164.237759 180.229841
84.533707 -37.624596 28.462700 -54.738345 39.202137 23.746927 -0.689805 0.942000 5.340998 -1.384804 -1.776608 13.948521 -0.000010 -0.000005 4.278904 -0.994863 -3.737534 -0.498395 -0.000007 -0.000001 9.970305 31.119476 -2.158786 -18.301512 -0.000008 0.000006 2.173902 -0.436030 0.167904 1.559312 2.472299 -0.285798 5.433897 -9.623802 3.658781 10.098493 5.327698 0.000006 0.000002 1306.175761 -120.533988 1253.612374 0.000012 0.000001 -10.712994 247.873794 -170.710797 197.657984 0.000001 -0.000006 -13.396899 148.289008 -175.316353 102.433112 -2.589405 -1.358396 6.105008 33.947717 22.678376 1.986233 -4.580197 0.000002 0.000000 -686.600614 -42.077353 -668.080419 0.000011 -0.000006 -10.761106 103.190621 -123.696502 88.892679 0.000003 0.000004 -13.028501 817.786636 -535.377220 767.964504 2.532497 0.486900 -2.489696 -582.244557 -49.432336 118.301048 0.000008 -0.000004 -18.199402 715.870433 538.483372 -87.210007 -0.000004 -0.000007 -16.083902 -100.670349 163.937422 231.560461 -2.112697 -0.049902 -2.711097 -108.828116 -24.448698 -109.732856 0.000005 -0.000002 -19.127298 1243.622157 41.005614 -1206.767658 0.000005 -0.000003 -14.874903 124.718243 164.498344 180.433285
84.394791 -37.566998 28.756798 -55.702921 39.459519 24.255023 -0.689799 0.941996 5.341000 -1.962752 -2.184654 13.896004 0.000006 -0.000001 4.278904 -0.704572 -3.684455 -0.483103 0.000009 0.000000 9.970303 28.631178 -1.919247 -18.391316 -0.000006 -0.000000 2.173895 0.297865 0.406011 0.612980 2.472306 -0.285803 5.433899 -10.273652 4.194372 9.533544 5.327705 -0.000004 0.000003 1309.636099 -119.574401 1257.071072 -0.000002 0.000002 -10.713003 244.217840 -171.278291 195.530954 0.000002 -0.000001 -13.396897 149.452681 -175.791570 103.378799 -2.589392 -1.358400 6.105005 33.694542 22.772761 1.000841 -4.580206 0.000000 0.000001 -685.753452 -41.217279 -666.590564 0.000004 -0.000008 -10.761106 103.405908 -123.899741 89.046481 0.000002 -0.000004 -13.028503 817.895482 -535.302908 768.397047 2.532508 0.486893 -2.489698 -582.433672 -49.571143 117.179982 0.000002 -0.000001 -18.199402 715.655364 538.262784 -88.201614 0.000003 -0.000008 -16.083893 -100.001940 163.653969 231.873448 -2.112697 -0.049907 -2.711101 -108.105516 -24.744093 -109.388396 0.000008 0.000003 -19.127298 1242.643199 42.141762 -1206.128680 0.000009 0.000004 -14.874905 124.994238 164.620864 181.088560
84.268204 -37.498589 29.051203 -56.536655 39.812158 24.819461 -0.689798 0.942002 5.340993 -2.654215 -2.538547 13.636758 0.000004 -0.000003 4.278900 -0.496331 -3.660102 -0.480386 -0.000003 -0.000007 9.970300 27.058544 -1.982322 -18.838693 0.000008 0.000006 2.173903 0.187947 0.490413 0.063890 2.472299 -0.285808 5.433908 -10.636147 4.468669 8.969645 5.327697 0.000010 -0.000003 1293.386478 -120.639733 1243.631664 0.000002 -0.000001 -10.712994 249.059242 -171.455466 193.655793 -0.000000 -0.000005 -13.396895 151.882411 -176.665725 105.579357 -2.589397 -1.358404 6.105010 33.308835 22.612272 0.620966 -4.580202 0.000002 0.000001 -685.518329 -40.431858 -665.923391 -0.000005 0.000000 -10.761100 103.450954 -123.729478 88.815771 0.000001 -0.000001 -13.028496 818.108147 -535.359079 767.877624 2.532504 0.486900 -2.489705 -582.469899 -50.023851 116.479191 -0.000003 0.000005 -18.199394 715.640064 538.121973 -89.173720 0.000006 -0.000007 -16.083904 -99.344241 163.352922 232.570427 -2.112701 -0.049907 -2.711104 -107.548459 -24.490712 -109.157966 -0.000004 0.000001 -19.127291 1242.017008 42.925840 -1205.560408 0.000005 -0.000000 -14.874897 125.383572 164.910369 181.579609
84.129982 -37.430893 29.356998 -57.229267 40.083085 25.256981 -0.689802 0.942005 5.341000 -3.494051 -2.890072 13.430138 -0.000002 -0.000011 4.278902 -0.121124 -3.619519 -0.481604 -0.000003 -0.000003 9.970295 25.475345 -1.876136 -19.342642 -0.000000 0.000006 2.173895 0.098226 0.464992 -0.422280 2.472299 -0.285797 5.433900 -11.170139 4.853322 8.337745 5.327703 0.000016 0.000001 1289.593264 -120.661671 1240.882650 0.000007 0.000005 -10.712996 246.404320 -171.766594 191.591014 0.000001 0.000008 -13.396895 155.993611 -177.581667 107.144235 -2.589405 -1.358398 6.104998 33.052139 22.763129 -0.120273 -4.580199 0.000011 0.000007 -684.659966 -39.327198 -664.228793 -0.000005 0.000003 -10.761102 103.211774 -124.602308 88.742483 -0.000006 -0.000000 -13.028502 818.873128 -535.379187 768.754511 2.532488 0.486892 -2.489705 -582.740375 -50.347418 115.423913 -0.000013 -0.000005 -18.199398 715.481987 538.063178 -90.264515 0.000001 0.000005 -16.083893 -98.628259 163.215539 233.365598 -2.112707 -0.049904 -2.711101 -106.805007 -24.578507 -108.590596 0.000004 -0.000002 -19.127295 1240.874235 43.859073 -1204.504297 -0.000008 0.000002 -14.874903 125.714481 165.082148 182.121216
83.992790 -37.363297 29.667799 -57.884433 40.489064 25.649228 -0.689802 0.941993 5.340995 -4.300642 -3.397379 13.261932 -0.000002 -0.000012 4.278893 0.163809 -3.554458 -0.463333 -0.000002 -0.000000 9.970300 23.786935 -1.676838 -19.827431 -0.000002 -0.000006 2.173891 0.128549 0.345660 -0.834964 2.472299 -0.285796 5.433901 -11.711497 5.233518 7.676065 5.327698 0.000006 0.000006 1285.363355 -120.842398 1237.613994 -0.000012 -0.000003 -10.712998 245.516860 -172.385792 189.529540 0.000002 -0.000006 -13.396901 157.659358 -178.707105 108.265520 -2.589397 -1.358394 6.105000 32.496602 22.840045 -0.660921 -4.580202 0.000002 -0.000000 -684.056122 -38.679604 -663.339776 0.000005 0.000002 -10.761099 103.632555 -124.971302 88.746335 -0.000005 -0.000003 -13.028500 819.652535 -535.410934 769.607138 2.532491 0.486880 -2.489698 -583.005987 -50.739754 114.454101 0.000001 -0.000003 -18.199398 715.453081 537.897177 -91.450188 0.000006 -0.000002 -16.083899 -98.031888 162.950473 234.058835 -2.112708 -0.049914 -2.711106 -106.141939 -24.530341 -108.087361 -0.000002 -0.000003 -19.127300 1239.678023 44.673607 -1203.232134 0.000003 0.000004 -14.874902 125.977252 165.234652 182.641649
